<?xml version="1.0" standalone="no"?>
<!DOCTYPE svg PUBLIC "-//W3C//DTD SVG 20010904//EN"
 "http://www.w3.org/TR/2001/REC-SVG-20010904/DTD/svg10.dtd">
<svg version="1.0" xmlns="http://www.w3.org/2000/svg"
 width="1060.000000pt" height="1060.000000pt" viewBox="0 0 1060.000000 1060.000000"
 preserveAspectRatio="xMidYMid meet">
<metadata>
Created by potrace 1.11, written by Peter Selinger 2001-2013
</metadata>
<g transform="translate(0.000000,1060.000000) scale(0.100000,-0.100000)"
fill="#000000" stroke="none">
<path d="M5384 10251 c-3 -4 -9 -6 -12 -7 -15 -2 -49 -16 -87 -36 -115 -59
-140 -73 -143 -80 -2 -5 -8 -6 -13 -2 -5 3 -9 0 -9 -7 0 -8 -4 -8 -12 -1 -7 5
-37 10 -67 11 -30 0 -57 4 -60 8 -3 5 -22 9 -41 11 -19 1 -37 6 -40 10 -7 9
-66 9 -75 0 -4 -4 -15 -4 -24 0 -16 8 -131 7 -161 -1 -35 -8 -90 -37 -108 -55
-24 -24 -104 -79 -116 -80 -5 0 -12 -4 -15 -9 -14 -19 -81 -62 -144 -91 -37
-18 -69 -32 -71 -32 -2 0 -20 -7 -40 -15 -20 -8 -39 -16 -43 -16 -5 -1 -16 -5
-26 -11 -10 -5 -29 -12 -42 -14 -13 -2 -45 -13 -71 -24 -26 -11 -54 -22 -63
-23 -9 -2 -31 -10 -49 -19 -18 -9 -29 -12 -26 -6 4 5 -4 4 -17 -3 -13 -7 -28
-14 -34 -15 -5 -1 -29 -9 -52 -17 -22 -9 -44 -13 -47 -10 -3 4 -6 1 -6 -6 0
-8 -7 -11 -15 -7 -8 3 -15 1 -15 -5 0 -6 -4 -8 -9 -4 -5 3 -13 1 -16 -5 -9
-15 14 -40 36 -40 11 0 19 -4 19 -8 0 -5 11 -15 25 -22 14 -7 25 -16 25 -19
-1 -11 -87 -61 -104 -61 -9 0 -19 -7 -22 -15 -4 -8 -9 -13 -13 -10 -4 2 -21
-3 -37 -11 -16 -9 -30 -15 -31 -15 -2 1 -5 0 -8 0 -8 -2 -18 -5 -52 -13 -18
-4 -33 -11 -33 -14 0 -4 -15 -8 -33 -8 -45 -2 -104 -11 -117 -19 -5 -3 -10 -2
-10 2 0 10 -53 9 -69 -2 -6 -3 -11 -3 -11 2 0 12 -62 9 -84 -4 -17 -10 -16
-12 15 -45 19 -19 53 -46 77 -58 23 -13 42 -28 42 -32 0 -5 5 -6 10 -3 6 3 10
1 10 -5 0 -6 4 -9 9 -6 5 4 11 3 13 -2 1 -4 30 -16 63 -26 59 -19 67 -22 103
-30 9 -3 17 -5 17 -6 0 -1 11 -3 23 -4 13 -2 27 -7 30 -13 4 -6 23 -13 42 -16
93 -15 116 -20 128 -29 8 -7 12 -7 12 1 0 7 4 10 8 7 5 -3 19 -7 33 -10 13 -3
34 -7 46 -10 22 -5 134 -9 143 -6 3 1 18 4 35 6 44 5 145 38 145 47 0 5 5 5
10 2 6 -3 10 -2 10 3 0 9 50 37 63 34 4 -1 7 2 7 7 0 12 51 31 72 28 25 -4 31
-14 23 -34 -5 -10 -7 -21 -7 -25 1 -5 -5 -8 -14 -8 -8 0 -13 -4 -10 -9 3 -5
-1 -11 -9 -15 -8 -3 -23 -21 -32 -41 -9 -19 -20 -35 -25 -35 -4 0 -8 -7 -8
-15 0 -8 -4 -15 -10 -15 -5 0 -10 -7 -10 -15 0 -8 -4 -15 -10 -15 -5 0 -10 -5
-10 -11 0 -6 -8 -23 -19 -37 -35 -51 -64 -171 -70 -290 -3 -63 -3 -119 1 -126
11 -20 58 -7 70 20 6 13 18 24 25 24 8 0 12 3 9 8 -2 4 2 16 10 27 8 10 14 15
14 10 0 -4 9 2 20 15 11 13 20 19 20 14 0 -5 5 -1 11 9 5 9 17 17 24 17 8 0
15 4 15 9 0 5 7 11 15 15 12 4 15 -4 14 -42 0 -26 1 -83 3 -127 3 -44 1 -96
-3 -115 -4 -19 -10 -51 -14 -70 -8 -46 -10 -53 -16 -65 -4 -5 -9 -23 -13 -38
-5 -19 -12 -27 -21 -23 -8 3 -17 1 -20 -5 -4 -5 -11 -6 -17 -3 -6 4 -30 6 -54
5 -65 -2 -74 -4 -74 -13 0 -4 -7 -8 -15 -8 -8 0 -15 -4 -15 -9 0 -4 -13 -24
-30 -42 -16 -19 -30 -37 -30 -41 0 -4 -8 -17 -17 -27 -27 -32 -73 -121 -63
-121 6 0 10 -8 10 -17 0 -19 22 -85 31 -93 5 -4 14 -25 21 -48 1 -4 10 -16 20
-26 9 -10 15 -23 12 -28 -3 -4 -1 -8 3 -8 5 0 23 -13 41 -29 17 -17 32 -27 32
-24 0 4 7 -2 15 -13 8 -10 15 -15 15 -11 0 5 7 1 15 -7 9 -9 38 -23 65 -33 28
-10 50 -21 50 -25 0 -5 9 -8 20 -8 21 0 27 -14 11 -25 -6 -3 -6 -17 -1 -35 5
-17 5 -30 0 -30 -7 0 -5 -297 4 -452 3 -43 4 -78 2 -78 -1 0 -22 10 -46 21
-24 12 -49 22 -54 23 -6 1 -15 4 -21 8 -5 3 -49 5 -97 4 -53 -1 -88 3 -88 9 0
6 -3 6 -8 0 -4 -6 -26 -17 -49 -23 -49 -15 -73 -45 -47 -60 9 -5 26 -7 37 -4
14 3 18 1 13 -6 -5 -8 2 -12 18 -12 14 0 26 -5 26 -11 0 -5 5 -7 10 -4 6 3 10
2 10 -4 0 -5 -6 -14 -14 -18 -7 -4 -19 -19 -26 -33 -7 -14 -22 -35 -33 -47
-11 -13 -17 -23 -13 -23 4 0 -2 -12 -13 -26 -12 -15 -21 -33 -21 -40 0 -8 -5
-14 -11 -14 -5 0 -8 -4 -5 -8 3 -5 -6 -30 -19 -57 -13 -27 -21 -53 -19 -57 3
-5 0 -8 -6 -8 -6 0 -8 -4 -5 -10 3 -5 3 -10 -2 -10 -15 0 -13 -58 2 -64 8 -3
15 -1 15 4 0 6 7 10 15 10 8 0 15 6 15 13 0 8 4 7 10 -3 6 -9 10 -11 10 -3 0
7 6 10 14 7 8 -3 12 -12 9 -20 -3 -8 1 -14 8 -14 7 0 9 -3 6 -6 -3 -4 -2 -15
4 -26 6 -11 12 -29 14 -40 3 -12 8 -24 12 -27 5 -3 19 -22 32 -42 13 -19 42
-47 65 -62 37 -24 42 -25 47 -9 4 9 4 21 1 27 -4 5 -7 22 -8 37 -4 46 30 43
81 -9 25 -25 45 -42 45 -38 0 5 8 1 18 -7 9 -9 33 -24 52 -33 19 -10 38 -22
41 -27 3 -5 10 -10 15 -10 11 -1 32 -7 59 -18 28 -11 96 -30 125 -34 14 -3 25
-5 25 -6 0 -2 44 -10 70 -13 11 -1 23 -5 26 -10 3 -4 16 -10 30 -13 13 -3 31
-7 39 -9 8 -2 22 -4 31 -4 18 -1 46 -51 28 -51 -8 0 -8 -4 -1 -12 5 -7 6 -22
2 -33 -6 -18 24 -132 39 -145 3 -3 15 -20 25 -39 16 -30 17 -33 3 -28 -9 3
-19 2 -22 -2 -8 -14 -68 -4 -80 13 -7 9 -17 16 -24 16 -6 0 -11 4 -11 8 0 5
-12 15 -27 23 -16 7 -39 21 -53 31 -69 48 -264 88 -314 65 -12 -6 -16 -6 -12
2 4 6 -14 2 -39 -9 -26 -11 -58 -22 -72 -24 -13 -3 -32 -11 -40 -18 -9 -7 -18
-12 -19 -11 -8 5 -64 -10 -64 -17 0 -3 -10 -6 -22 -5 -13 1 -29 -3 -37 -9 -8
-6 -17 -10 -20 -10 -3 1 -15 -2 -26 -6 -11 -4 -22 -7 -25 -6 -13 3 -104 -86
-108 -104 -4 -23 -46 -115 -55 -118 -4 -2 -5 -8 -1 -13 3 -5 0 -9 -6 -9 -6 0
-10 -6 -8 -12 3 -18 -24 -88 -32 -83 -4 2 -6 -6 -5 -18 1 -12 -2 -29 -6 -37
-18 -36 -37 -98 -32 -104 4 -3 1 -6 -6 -6 -7 0 -10 -4 -7 -8 3 -5 -1 -21 -9
-36 -10 -18 -10 -24 -2 -19 9 5 9 3 0 -8 -7 -9 -15 -26 -17 -40 -3 -13 -5 -24
-6 -24 -14 0 -15 -204 -1 -218 6 -6 11 -21 11 -34 0 -13 5 -23 10 -23 6 0 10
-8 10 -19 0 -10 7 -31 14 -47 8 -15 13 -31 10 -36 -3 -4 0 -8 5 -8 6 0 11 -5
11 -10 0 -12 51 -92 65 -102 5 -4 6 -8 2 -8 -4 0 4 -12 18 -27 14 -15 25 -31
25 -35 0 -4 9 -10 20 -13 20 -6 19 -8 -12 -36 -18 -16 -36 -29 -39 -29 -3 0
-14 -16 -25 -35 -10 -19 -21 -35 -24 -35 -3 0 -6 -25 -8 -55 -3 -53 -2 -55 43
-100 25 -25 49 -45 53 -45 4 -1 17 -17 29 -36 l22 -35 -37 -17 c-20 -9 -39
-20 -42 -23 -3 -3 -13 -5 -22 -3 -10 1 -18 -1 -18 -5 0 -9 -82 -51 -99 -51 -6
0 -11 -4 -11 -10 0 -5 -3 -9 -7 -8 -8 1 -37 -9 -95 -35 -16 -7 -28 -15 -28
-19 0 -5 -9 -8 -20 -8 -10 0 -24 -8 -29 -17 -6 -10 -11 -14 -11 -9 0 5 -7 3
-15 -4 -8 -7 -15 -9 -15 -5 0 5 -9 0 -20 -10 -11 -10 -20 -14 -20 -10 0 4 -9
0 -20 -10 -11 -10 -20 -15 -20 -10 0 4 -6 2 -13 -4 -8 -6 -17 -8 -20 -4 -4 3
-7 1 -7 -5 0 -7 -9 -12 -20 -12 -11 0 -20 -4 -20 -10 0 -5 -3 -9 -7 -8 -11 2
-38 -9 -113 -45 -64 -31 -135 -91 -125 -107 3 -5 1 -10 -4 -12 -6 -1 -12 -16
-15 -33 -3 -16 -10 -31 -16 -33 -6 -2 -23 -16 -37 -30 -14 -14 -42 -37 -62
-50 -19 -13 -47 -35 -61 -48 -29 -27 -55 -49 -101 -86 -19 -14 -47 -38 -63
-51 -30 -26 -56 -26 -56 -1 0 8 -4 14 -9 14 -5 0 -14 14 -21 31 -15 36 -61 71
-68 51 -2 -6 -10 -12 -18 -12 -8 0 -17 -7 -20 -15 -4 -8 -12 -15 -20 -15 -8 0
-14 -4 -14 -9 0 -6 -12 -23 -26 -38 -14 -15 -32 -40 -39 -54 -14 -27 -10 -73
6 -63 5 3 9 0 9 -6 0 -6 9 -20 20 -32 22 -24 21 -52 -1 -71 -27 -21 -79 -94
-94 -130 -17 -41 -13 -136 6 -147 6 -5 9 -15 6 -23 -3 -9 -3 -17 1 -19 9 -4
46 -81 44 -91 -1 -4 1 -7 6 -7 4 0 16 -15 26 -34 20 -38 105 -106 135 -109 12
-1 21 -4 21 -7 0 -3 39 -5 88 -4 48 1 87 2 87 3 0 1 36 4 80 6 44 2 100 7 125
10 25 3 62 8 82 10 20 2 43 7 50 11 14 9 15 9 63 19 17 3 48 11 70 16 22 5 45
11 50 12 6 1 16 6 23 10 6 5 12 6 12 3 0 -3 22 3 49 14 27 10 52 16 55 13 3
-4 6 -1 6 6 0 8 5 9 19 2 10 -6 21 -7 25 -4 3 3 6 2 6 -4 0 -5 17 -9 38 -9 25
1 39 -3 39 -11 0 -7 -4 -13 -9 -13 -4 0 -8 -6 -8 -13 0 -7 -9 -18 -20 -25 -12
-7 -18 -17 -15 -22 3 -5 1 -11 -5 -15 -6 -4 -8 -11 -5 -16 4 -5 2 -9 -3 -9 -8
0 -62 -114 -62 -130 0 -3 9 -6 20 -7 11 -1 20 2 20 8 0 5 7 9 15 9 8 0 15 5
15 10 0 6 7 10 15 10 8 0 15 4 15 9 0 5 6 11 14 14 12 5 14 -20 14 -143 0 -82
3 -154 8 -161 4 -7 8 -26 10 -43 1 -17 8 -43 16 -57 11 -21 16 -24 26 -13 18
20 33 64 26 76 -4 6 -3 8 3 5 5 -3 20 16 34 43 13 27 27 50 32 50 4 0 7 5 7
10 0 6 5 16 11 23 5 7 19 27 29 45 26 42 35 41 34 -5 0 -21 2 -42 5 -48 3 -5
6 -14 7 -20 11 -68 34 -143 55 -179 8 -14 8 -16 -3 -10 -9 6 -8 0 3 -16 13
-20 26 -58 31 -90 1 -3 12 -26 25 -51 13 -26 23 -50 23 -53 0 -9 74 -120 83
-124 4 -2 5 -8 1 -13 -3 -5 0 -9 5 -9 6 0 11 -7 11 -15 0 -8 9 -20 20 -27 11
-7 20 -17 20 -22 0 -13 52 -89 67 -99 7 -4 13 -13 13 -20 0 -7 14 -21 30 -32
27 -18 45 -45 20 -30 -5 3 -10 1 -10 -5 0 -6 -5 -8 -12 -4 -19 12 -78 11 -78
-1 0 -7 -3 -7 -8 0 -7 10 -17 12 -89 17 -18 2 -33 7 -33 12 0 4 -6 6 -14 3 -8
-3 -17 -3 -20 1 -4 3 -25 6 -49 7 -23 1 -51 6 -62 12 -11 6 -26 8 -33 6 -7 -3
-20 -2 -30 3 -22 9 -41 13 -72 16 -14 1 -29 4 -35 8 -5 3 -26 7 -45 9 -19 2
-37 6 -40 10 -3 3 -14 7 -25 8 -20 2 -60 10 -60 13 0 1 -27 7 -62 14 -7 1 -16
5 -19 9 -4 4 -18 7 -31 7 -13 0 -23 4 -23 9 0 5 -8 8 -17 6 -10 -1 -30 4 -45
12 -16 7 -28 10 -28 6 0 -5 -6 -1 -13 7 -7 8 -21 17 -32 18 -11 2 -22 8 -23
13 -2 5 -7 7 -12 4 -4 -3 -13 2 -20 10 -7 8 -21 15 -31 15 -11 0 -19 5 -19 10
0 6 -6 10 -13 10 -17 0 -90 40 -99 54 -4 6 -8 7 -8 2 0 -5 -7 -2 -17 5 -9 8
-18 13 -20 11 -2 -1 -20 5 -41 14 -20 10 -40 16 -44 16 -5 -1 -8 2 -8 7 0 5
-9 11 -20 14 -15 4 -22 -1 -26 -19 -4 -14 -1 -31 6 -39 7 -8 9 -15 6 -15 -4 0
-2 -9 4 -21 6 -11 13 -30 15 -41 3 -12 8 -24 12 -27 5 -3 9 -12 11 -20 2 -8
12 -27 23 -42 10 -15 19 -32 19 -38 0 -6 5 -11 10 -11 6 0 10 -8 10 -17 0 -16
-12 -18 -123 -18 -81 1 -130 -3 -147 -12 -14 -7 -33 -13 -42 -13 -10 0 -18 -4
-18 -9 0 -6 -9 -8 -20 -6 -11 2 -20 -1 -20 -6 0 -6 -4 -8 -9 -4 -5 3 -12 1
-16 -5 -3 -5 -12 -10 -20 -10 -8 0 -26 -5 -42 -12 -32 -13 -52 -19 -70 -20 -7
-1 -13 -5 -13 -9 0 -4 -21 -18 -46 -31 -26 -12 -49 -28 -51 -35 -3 -7 -9 -11
-13 -8 -12 7 -114 -94 -134 -133 -9 -17 -21 -32 -26 -32 -6 0 -10 -8 -10 -19
0 -10 -7 -24 -15 -31 -8 -7 -15 -18 -15 -24 0 -6 -7 -23 -14 -38 -8 -15 -16
-38 -18 -50 -2 -13 -6 -25 -10 -28 -4 -3 -8 -17 -10 -30 -2 -14 -7 -30 -10
-36 -4 -6 -10 -30 -13 -54 -3 -23 -8 -46 -11 -51 -3 -5 0 -9 6 -9 6 0 9 -4 5
-9 -12 -20 26 -90 56 -103 16 -7 29 -17 29 -21 0 -5 4 -5 10 -2 5 3 10 -2 10
-12 0 -17 62 -104 74 -104 9 1 39 -10 64 -22 13 -6 45 -11 73 -11 27 0 49 -3
49 -6 0 -6 41 -5 48 0 8 7 69 5 79 -3 7 -5 13 -6 13 -1 0 5 32 9 72 8 39 0 90
3 112 7 25 4 43 3 47 -3 9 -14 86 -48 93 -40 3 3 6 0 6 -7 0 -8 7 -11 15 -7 8
3 15 1 15 -5 0 -6 6 -9 14 -6 8 3 17 3 20 -1 8 -8 30 -12 86 -17 25 -2 45 -4
45 -5 0 -5 77 -5 80 0 2 4 20 6 39 5 20 -1 36 1 36 4 0 4 17 8 38 10 20 2 46
4 57 5 11 1 26 5 33 9 6 5 12 6 12 2 0 -3 9 -1 20 5 15 8 20 8 20 -2 0 -10 2
-10 8 -1 4 7 23 15 42 17 116 17 180 33 180 45 0 3 20 7 44 8 25 1 77 11 118
22 40 11 89 22 108 25 19 3 52 9 72 14 20 5 39 7 42 4 4 -3 6 -1 6 4 0 5 12
10 28 11 39 3 81 9 132 21 24 6 46 9 49 7 2 -3 9 -1 15 4 7 6 24 12 40 15 15
3 49 12 74 20 26 9 52 16 57 17 6 0 16 5 23 11 6 6 12 8 12 5 0 -3 16 1 35 9
19 8 35 11 35 8 0 -4 8 0 18 9 10 10 21 14 24 11 4 -3 16 0 28 6 12 6 34 14
48 16 15 3 31 9 37 15 5 5 19 9 30 9 12 0 25 3 29 7 6 7 29 13 54 15 6 1 12 5
12 10 0 5 5 6 10 3 6 -3 10 -1 10 4 0 6 3 10 8 9 8 -1 30 6 82 30 19 8 40 15
47 15 7 0 14 6 17 14 3 7 12 13 21 13 26 0 66 95 64 151 -2 28 -6 52 -11 55
-4 3 -8 14 -8 25 0 10 -5 19 -11 19 -5 0 -7 5 -4 11 4 5 0 18 -8 27 -11 14
-26 50 -31 82 -1 3 -10 23 -21 45 -10 22 -20 49 -22 60 -2 11 -8 21 -13 23 -6
2 -10 10 -10 18 0 13 -29 85 -51 126 -5 10 -9 25 -9 33 0 8 -4 15 -8 15 -5 0
-9 6 -10 13 -3 37 -8 53 -20 65 -7 8 -10 18 -6 23 3 6 2 15 -3 22 -12 15 -36
92 -36 112 0 8 -4 15 -9 15 -4 0 -7 3 -6 7 1 5 -4 34 -11 66 -7 32 -14 79 -15
106 -1 26 -6 52 -9 58 -4 6 -3 13 0 17 4 3 8 52 9 109 3 87 9 162 14 162 1 0
3 8 5 18 2 10 7 26 11 35 4 9 8 19 9 22 2 5 11 29 28 75 7 17 11 33 9 38 -5
15 35 6 56 -13 12 -11 24 -20 27 -20 7 0 128 -82 135 -91 3 -4 12 -9 20 -11 8
-2 23 -12 33 -22 9 -10 17 -15 17 -10 0 5 7 1 14 -9 8 -10 20 -20 28 -21 34
-7 74 -19 83 -26 6 -4 35 -8 67 -9 55 -2 91 10 113 37 8 10 20 9 60 -9 69 -31
102 -32 155 -8 45 21 90 60 90 78 0 15 36 5 59 -16 50 -43 57 -48 78 -49 15
-1 23 6 26 22 2 13 1 24 -3 24 -6 0 -7 55 -1 68 1 1 9 -6 19 -15 52 -50 139
-96 172 -92 3 0 18 -5 34 -11 15 -6 51 -11 78 -12 37 0 52 -6 63 -21 8 -11 12
-24 9 -29 -3 -4 -1 -8 4 -8 10 0 9 -226 -1 -236 -4 -4 -2 -13 4 -20 8 -10 8
-15 -2 -19 -8 -3 -15 -19 -16 -37 -1 -17 -6 -34 -10 -37 -5 -3 -8 -10 -9 -16
-2 -27 -17 -75 -24 -75 -4 0 -13 -18 -20 -41 -8 -23 -20 -43 -27 -46 -7 -3
-10 -10 -6 -16 3 -5 0 -15 -8 -21 -8 -6 -25 -27 -39 -46 -32 -48 -73 -89 -87
-90 -6 0 -13 -3 -15 -7 -5 -12 -88 -64 -88 -56 0 5 -4 2 -9 -5 -4 -7 -14 -15
-22 -16 -18 -4 -48 -15 -75 -28 -12 -5 -33 -11 -48 -11 -14 -1 -26 -5 -26 -9
0 -11 -62 -22 -139 -23 -51 0 -76 -5 -79 -14 -6 -17 33 -56 69 -71 16 -7 29
-16 29 -21 0 -5 8 -9 18 -9 10 0 22 -3 26 -7 4 -5 11 -8 14 -8 36 -3 71 -34
40 -35 -15 -1 -88 -92 -88 -109 0 -6 -5 -11 -12 -11 -6 0 -8 -3 -5 -7 4 -3 1
-11 -6 -17 -17 -14 -40 -83 -33 -95 4 -5 2 -11 -4 -13 -5 -1 -12 -32 -14 -68
-2 -36 -5 -65 -6 -65 -1 0 -3 -48 -4 -107 -2 -72 1 -108 8 -108 8 0 7 -3 0 -8
-10 -7 -12 -116 -2 -152 10 -33 37 -88 47 -94 6 -4 8 -12 5 -18 -4 -7 -2 -8 4
-4 7 4 12 3 12 -1 0 -10 85 -72 103 -76 7 -1 15 -5 18 -10 3 -4 15 -9 27 -12
12 -2 27 -7 32 -10 6 -4 22 -9 36 -11 15 -3 48 -27 75 -54 27 -28 53 -50 57
-50 4 0 14 -9 22 -20 8 -11 19 -20 25 -20 6 0 29 -13 51 -30 21 -16 47 -30 57
-30 9 0 17 -4 17 -8 0 -11 5 -11 110 -12 85 -1 106 1 125 11 9 6 58 21 80 25
6 1 12 3 15 4 3 1 12 3 20 5 8 2 29 9 45 16 17 7 33 13 38 14 4 2 10 4 15 5 4
2 12 4 17 5 14 2 69 28 75 36 13 15 42 16 85 3 56 -16 175 -25 175 -13 0 5 9
9 19 9 11 0 22 4 26 10 3 5 12 7 20 3 8 -3 15 0 15 7 0 6 5 8 10 5 6 -3 10 -2
10 3 0 5 14 15 30 22 17 7 30 17 30 22 0 5 5 6 10 3 6 -3 10 -1 10 4 0 6 7 11
15 11 7 0 18 7 23 16 5 9 12 16 15 15 14 -1 67 26 61 31 -3 4 4 9 15 13 12 3
21 11 21 16 0 6 4 8 9 5 14 -9 57 53 53 76 -1 5 2 8 7 8 6 0 8 9 6 20 -2 11 0
20 4 20 10 0 14 78 11 220 -2 157 -4 180 -12 180 -4 0 -3 11 2 25 7 17 6 25
-1 25 -8 0 -8 4 0 13 6 8 8 17 4 21 -4 4 -8 23 -9 44 -1 20 -3 39 -4 42 -1 3
-3 10 -4 15 -1 6 -6 30 -11 55 -5 25 -10 59 -10 75 -1 17 -3 32 -4 35 -5 10
-13 56 -15 75 0 11 -4 22 -8 26 -4 3 -9 18 -12 35 -2 16 -6 36 -9 44 -10 27
-31 95 -32 105 -1 6 -3 12 -4 15 -2 3 -4 12 -6 20 -1 8 -10 33 -19 55 -10 22
-17 42 -18 45 0 3 -9 29 -19 58 -10 30 -18 57 -17 60 1 4 -1 14 -4 22 -5 13
-28 92 -34 113 -1 4 -3 9 -4 12 -1 3 -4 10 -5 15 -1 6 -4 12 -5 15 -1 3 -3 8
-5 13 -1 4 -5 21 -10 37 -5 17 -16 45 -26 63 -10 17 -17 32 -14 32 7 0 -47
105 -59 112 -6 4 -7 8 -2 8 5 0 3 7 -4 15 -7 8 -9 15 -5 15 5 0 -1 8 -11 17
-10 10 -21 27 -22 38 -2 11 -7 22 -11 25 -12 9 -40 74 -35 82 3 4 0 8 -5 8 -6
0 -11 7 -11 15 0 8 -4 15 -10 15 -5 0 -10 9 -10 20 0 11 -5 20 -11 20 -6 0 -9
7 -5 15 3 8 1 15 -5 15 -5 0 -16 15 -24 33 -10 24 -11 35 -2 46 10 12 9 13 -3
7 -8 -4 -7 -1 3 7 10 9 18 18 18 21 -1 18 13 66 19 66 5 0 7 8 5 18 -1 9 1 26
6 38 7 21 13 53 25 139 3 28 8 53 11 58 2 4 0 7 -4 7 -10 0 -10 47 0 57 4 3 2
12 -4 20 -9 10 -8 13 0 13 7 0 10 4 6 10 -3 5 -8 40 -12 77 -8 90 -11 118 -13
118 -1 0 -3 8 -6 17 -9 39 -12 48 -44 129 -10 26 -15 50 -11 55 3 5 23 18 44
29 20 11 37 23 37 28 0 4 4 6 8 3 5 -3 21 6 37 20 15 13 32 24 37 24 5 0 7 3
5 8 -6 9 19 33 27 25 3 -4 6 0 6 8 0 9 9 25 20 37 11 12 20 25 20 31 0 5 4 11
9 13 5 2 11 9 13 17 2 7 12 24 23 36 23 26 101 176 97 188 -1 4 3 7 8 7 6 0
10 9 10 19 0 11 7 26 15 34 8 8 12 17 9 20 -5 5 10 76 23 107 9 21 9 21 16 60
29 153 34 223 26 317 -4 42 -12 53 -24 33 -4 -6 -11 -8 -16 -4 -5 3 -8 2 -7
-3 5 -19 -34 -72 -62 -85 -16 -7 -30 -16 -30 -19 0 -4 -9 -9 -21 -12 -16 -4
-19 -2 -14 11 11 28 36 106 41 130 4 20 1 22 -23 17 -15 -2 -33 -11 -39 -20
-6 -8 -16 -15 -22 -15 -6 0 -21 -10 -33 -22 -12 -13 -19 -16 -15 -8 4 8 0 6
-9 -5 -9 -11 -21 -19 -26 -17 -5 1 -12 -5 -15 -13 -4 -8 -14 -15 -24 -15 -10
0 -20 -3 -22 -7 -5 -13 -76 -63 -87 -63 -6 0 -11 -5 -11 -11 0 -5 -4 -7 -10
-4 -5 3 -10 2 -10 -3 0 -6 -6 -12 -14 -15 -10 -4 -12 0 -9 14 3 10 9 19 14 19
5 0 9 7 9 15 0 8 4 15 8 15 4 0 13 12 19 27 14 33 31 59 56 87 9 11 17 25 17
32 0 7 4 14 9 16 11 4 66 97 76 129 4 13 12 27 18 31 5 3 12 21 14 39 2 18 8
36 13 39 14 9 19 159 6 174 -6 6 -13 20 -14 31 -2 11 -8 22 -12 25 -6 4 -22
52 -35 105 -4 20 -16 50 -30 77 -13 26 -12 27 23 44 64 30 82 47 67 67 -7 9
-17 17 -23 17 -11 0 -21 7 -79 55 l-24 20 28 30 c15 16 27 33 26 37 -2 5 1 8
7 8 5 0 7 7 3 15 -3 9 -8 14 -11 11 -2 -3 -18 4 -33 15 -16 11 -29 18 -29 15
0 -3 -9 3 -20 14 -11 11 -24 20 -30 20 -5 0 -18 7 -27 16 -10 8 -32 27 -48 42
-32 28 -75 95 -75 116 0 7 -9 22 -20 34 -11 12 -20 24 -20 28 0 4 -11 17 -26
30 -14 13 -21 24 -17 25 4 0 -2 4 -14 9 -13 5 -23 16 -23 25 0 8 -4 15 -9 15
-5 0 -23 14 -41 30 -38 36 -117 90 -131 90 -5 0 -9 3 -9 8 0 8 -57 35 -80 37
-8 1 -24 6 -35 11 -11 6 -27 10 -35 9 -8 -1 -21 4 -29 9 -12 9 -13 8 -7 -2 7
-11 4 -12 -11 -3 -11 6 -23 7 -27 4 -3 -3 -6 -1 -6 5 0 7 9 21 20 32 11 11 20
18 20 16 0 -3 19 3 43 13 23 10 57 21 76 25 30 5 33 4 28 -14 -3 -13 1 -21 15
-26 11 -3 23 -2 27 2 3 5 19 16 35 24 60 31 166 160 166 202 0 10 4 18 9 18 5
0 8 8 6 18 -1 9 2 27 6 40 5 12 5 22 1 22 -4 0 -7 12 -6 28 1 15 -2 37 -7 48
-4 12 -6 24 -3 27 7 7 74 -26 74 -37 0 -6 7 0 16 13 9 13 13 26 8 30 -5 3 -11
15 -12 26 -2 11 -7 22 -10 25 -4 3 -7 10 -7 15 -1 23 -30 101 -42 113 -7 8
-11 17 -8 22 3 4 -2 11 -11 14 -9 4 -14 9 -11 12 6 6 -1 17 -34 53 -21 24 -31
51 -16 45 7 -2 30 14 52 37 34 35 40 38 46 22 3 -10 5 -26 3 -35 -1 -10 1 -18
5 -18 4 0 8 -12 9 -27 1 -16 4 -39 8 -53 3 -14 7 -36 8 -50 1 -14 4 -30 7 -35
3 -6 5 -22 4 -37 0 -16 3 -28 9 -28 5 0 7 -3 3 -6 -3 -3 1 -27 9 -53 7 -26 16
-61 18 -77 2 -16 7 -37 11 -47 4 -10 5 -21 1 -24 -3 -3 -1 -11 4 -18 5 -6 11
-20 13 -31 2 -10 7 -26 10 -34 17 -47 26 -83 22 -90 -3 -5 -1 -11 5 -15 5 -3
10 -14 10 -24 0 -9 5 -22 12 -29 6 -6 13 -20 14 -29 3 -22 9 -43 17 -63 15
-37 45 -130 42 -130 -2 0 6 -24 17 -52 11 -29 20 -61 20 -70 -1 -10 4 -18 10
-18 6 0 9 -3 6 -6 -4 -3 0 -21 8 -40 8 -19 11 -34 8 -34 -4 0 -1 -7 6 -15 7
-8 9 -15 5 -15 -4 0 -3 -6 2 -12 10 -13 26 -63 28 -84 0 -6 5 -22 11 -35 11
-23 45 -106 67 -159 5 -14 16 -37 24 -52 8 -16 12 -28 8 -28 -3 0 1 -13 10
-30 9 -16 13 -30 10 -30 -3 0 2 -11 11 -25 9 -14 14 -34 11 -46 -3 -12 -3 -18
0 -15 6 6 18 -20 46 -101 7 -18 15 -33 19 -33 5 0 8 -9 8 -20 0 -11 4 -20 10
-20 5 0 9 -3 8 -7 -3 -8 61 -142 72 -153 8 -8 45 -75 41 -75 -2 0 3 -12 10
-27 7 -16 17 -28 22 -28 6 0 8 -3 4 -6 -3 -4 -1 -12 6 -20 30 -33 35 -42 30
-48 -4 -3 -2 -6 3 -6 6 0 21 -18 33 -40 22 -39 110 -119 134 -121 14 -1 29 -5
40 -9 56 -21 291 -31 388 -17 42 6 81 27 76 42 -2 5 -19 11 -38 12 -19 0 -34
2 -34 3 0 1 -9 3 -19 5 -10 2 -22 8 -25 13 -3 4 -14 11 -23 15 -24 9 -22 44 5
94 23 43 77 112 77 100 0 -4 6 -3 13 2 54 45 77 62 98 71 13 6 39 19 57 30 17
11 32 17 32 14 0 -2 10 1 23 8 35 20 90 37 99 32 4 -3 8 -1 8 5 0 6 27 16 59
22 65 14 67 18 37 90 -8 19 -15 39 -17 44 -9 39 -12 45 -22 45 -6 0 -8 3 -4 6
3 4 -3 24 -14 45 -11 22 -16 39 -12 39 5 0 0 5 -10 11 -9 6 -15 14 -12 20 4 5
3 9 -2 9 -4 0 -21 21 -38 48 -16 26 -35 51 -42 55 -7 4 -13 14 -13 20 0 7 -13
28 -30 47 -16 19 -29 41 -30 48 0 6 -4 12 -10 12 -5 0 -10 6 -10 13 0 8 -9 22
-20 32 -11 10 -17 22 -14 26 3 5 -2 9 -11 9 -9 0 -14 4 -11 8 3 5 -7 21 -22
37 -15 16 -26 32 -26 35 1 3 -15 25 -35 50 -20 25 -40 50 -46 57 -5 7 -45 49
-87 93 -43 43 -78 84 -78 89 0 6 -4 11 -10 11 -9 0 -42 25 -76 58 -8 7 -14 10
-14 7 0 -4 -15 8 -34 26 -41 41 -60 57 -106 88 -19 14 -52 42 -72 63 -21 21
-42 38 -48 38 -5 0 -10 3 -10 8 0 4 -17 18 -38 32 -20 14 -54 42 -75 62 -21
21 -40 38 -42 38 -2 0 -27 22 -55 50 -27 27 -50 46 -50 42 0 -3 -45 41 -100
98 -55 58 -100 111 -100 118 0 7 -4 10 -10 7 -5 -3 -10 2 -10 12 0 10 -9 24
-20 31 -11 7 -20 19 -20 27 0 8 -4 15 -10 15 -5 0 -10 6 -10 13 0 7 -9 23 -20
35 -11 12 -20 23 -20 26 0 2 -18 32 -40 65 -22 33 -40 65 -40 70 0 6 -9 25
-20 43 -11 18 -20 40 -19 48 0 9 4 6 11 -7 6 -13 15 -23 20 -23 4 0 8 -5 8
-10 0 -12 15 -32 43 -58 9 -9 17 -20 17 -25 0 -5 7 -15 15 -23 8 -9 15 -13 15
-11 0 3 21 -16 47 -41 25 -26 51 -47 56 -47 5 0 14 -7 20 -15 7 -8 24 -21 40
-29 15 -8 27 -18 27 -23 0 -4 5 -8 12 -8 6 0 18 -7 27 -15 53 -51 158 -115
199 -121 8 -2 21 -6 30 -10 9 -4 20 -8 23 -8 3 -1 13 -9 22 -18 10 -9 26 -20
37 -23 11 -3 20 -10 20 -15 0 -4 10 -11 23 -15 12 -4 25 -8 30 -10 18 -6 22
-7 30 -6 4 0 7 -4 7 -9 0 -5 3 -9 8 -8 4 1 21 -5 37 -12 17 -7 32 -14 35 -15
3 -1 31 -14 62 -28 32 -15 69 -29 83 -33 14 -3 28 -10 31 -15 3 -5 10 -7 15
-4 5 4 9 1 9 -4 0 -6 3 -10 8 -9 4 1 21 -5 37 -12 17 -7 33 -13 38 -12 4 1 7
-3 7 -8 0 -6 7 -10 15 -10 8 0 15 -5 15 -11 0 -5 4 -7 10 -4 6 3 10 1 10 -6 0
-7 3 -10 6 -6 4 3 26 -7 50 -23 23 -17 47 -30 53 -30 6 0 11 -4 11 -9 0 -5 14
-14 30 -21 17 -7 30 -16 30 -21 0 -5 3 -8 8 -7 15 3 62 -15 73 -28 6 -8 22
-14 35 -14 13 0 24 -4 24 -9 0 -5 17 -15 38 -22 20 -6 42 -15 47 -18 6 -4 15
-7 20 -6 13 1 53 24 42 25 -4 0 -1 10 7 23 8 12 15 27 16 32 2 27 13 55 21 55
5 0 9 7 9 15 0 8 5 15 12 15 6 0 9 3 5 6 -3 3 3 15 13 27 11 12 20 25 20 29 2
23 120 106 143 100 4 -1 7 3 7 10 0 6 3 9 6 6 3 -4 21 0 40 8 19 8 39 12 44 9
6 -4 10 -3 10 2 0 25 245 46 260 22 3 -5 15 -6 27 -3 14 4 19 11 16 25 -3 10
-9 16 -14 13 -5 -3 -9 2 -9 10 0 9 -4 16 -8 16 -5 0 -22 11 -38 25 -16 14 -35
25 -41 25 -7 0 -13 5 -13 11 0 5 -4 7 -10 4 -5 -3 -10 -2 -10 2 0 5 -17 17
-37 28 -21 10 -46 26 -55 34 -10 8 -18 11 -18 7 0 -4 -10 -1 -22 6 -13 7 -26
11 -30 10 -5 -1 -8 3 -8 9 0 5 -5 7 -10 4 -6 -4 -16 -3 -23 3 -7 5 -37 18 -67
28 -30 10 -58 22 -61 26 -3 5 -17 9 -32 10 -15 1 -27 6 -27 10 0 4 -13 8 -29
8 -17 0 -32 4 -35 9 -5 7 -17 11 -74 22 -4 1 -25 7 -47 14 -22 6 -55 11 -73
10 -17 -1 -32 2 -32 6 0 5 -7 6 -15 3 -8 -3 -20 -2 -27 2 -18 11 -70 17 -170
18 -49 0 -88 5 -88 9 0 5 -6 5 -12 0 -16 -9 -98 -11 -98 -1 0 4 -13 3 -30 -2
-21 -6 -30 -5 -30 3 0 8 -3 8 -12 -1 -6 -6 -18 -8 -27 -3 -9 5 -35 9 -59 10
-24 0 -52 6 -63 11 -10 6 -19 9 -19 6 0 -3 -25 4 -55 14 -30 10 -55 16 -55 13
0 -3 -8 1 -18 10 -10 10 -21 15 -24 12 -3 -3 -18 0 -34 6 -16 7 -32 12 -36 11
-5 -1 -8 3 -8 8 0 5 -3 9 -7 8 -9 -2 -119 37 -145 52 -10 6 -25 10 -33 10 -8
0 -15 5 -15 10 0 6 -8 10 -18 10 -10 0 -38 9 -61 21 -24 11 -51 21 -62 22 -10
1 -19 5 -19 9 0 4 -3 7 -7 6 -15 -4 -53 13 -53 23 0 6 -4 7 -10 4 -5 -3 -10
-1 -10 4 0 6 -5 11 -11 11 -10 0 -69 41 -97 68 -7 6 -18 12 -23 12 -6 0 -8 4
-5 8 3 5 -6 15 -20 23 -21 11 -25 18 -20 43 4 17 11 33 17 37 6 3 10 9 10 13
-1 3 0 8 0 11 1 3 3 10 4 15 1 6 3 11 5 13 1 1 4 22 6 47 3 25 9 47 12 50 8 6
9 80 2 80 -3 0 -6 8 -7 18 -1 9 -4 32 -7 51 -5 29 -4 32 12 26 9 -4 26 -8 37
-9 11 0 22 -4 25 -8 3 -4 16 -5 28 -1 l22 5 -22 37 c-12 20 -28 42 -35 49 -7
7 -13 20 -13 28 0 8 -4 13 -9 9 -5 -3 -12 4 -16 15 -3 11 -13 20 -21 20 -8 0
-14 3 -14 8 0 4 -17 18 -38 32 -20 14 -42 29 -49 35 -6 5 -34 24 -62 40 -28
17 -51 34 -51 38 0 5 -4 5 -10 2 -5 -3 -10 -1 -10 6 0 7 -3 9 -6 6 -7 -7 -63
29 -76 48 -5 6 -8 6 -8 0 0 -5 -7 3 -16 20 -16 31 -7 75 16 75 6 0 8 5 5 10
-3 6 1 10 9 10 9 0 16 4 16 8 0 15 65 79 110 108 25 16 48 33 52 39 5 7 8 7 8
0 0 -6 3 -6 8 0 9 13 60 46 68 44 4 0 10 3 13 8 10 14 70 53 81 53 6 0 8 5 5
10 -3 6 1 10 10 10 9 0 23 7 32 16 9 8 21 13 28 10 8 -3 16 2 19 10 3 9 10 13
15 9 5 -3 13 0 16 5 6 10 43 28 70 34 12 3 63 25 87 37 10 5 26 9 36 9 10 0
22 3 26 7 6 7 29 13 54 15 6 1 12 5 12 9 0 5 7 6 15 3 8 -4 15 -1 15 6 0 7 7
10 15 7 8 -4 17 -2 20 4 4 5 11 7 16 4 5 -4 9 -1 9 5 0 6 4 9 9 5 5 -3 12 -1
16 5 3 5 17 10 31 10 13 0 24 5 24 11 0 5 3 8 8 5 7 -4 74 17 135 42 71 31 83
35 97 37 8 1 36 9 63 18 26 9 66 19 90 22 58 7 70 9 85 18 6 5 12 6 12 2 0 -3
16 1 35 9 19 8 35 12 35 9 0 -3 7 0 15 7 8 7 15 9 15 5 0 -4 6 -2 14 4 8 7 27
14 43 17 15 3 30 9 31 15 2 5 8 6 13 3 6 -3 17 0 26 8 9 7 18 12 20 11 1 -2 4
-3 6 -2 1 0 12 2 24 5 12 2 48 15 80 30 32 14 66 26 75 27 9 1 14 5 12 9 -3 4
0 9 5 9 16 2 23 4 54 17 16 7 34 12 41 12 8 0 19 7 26 15 7 8 18 15 24 15 6 0
22 9 36 20 14 11 31 20 39 20 7 0 24 10 36 23 27 28 56 50 92 74 15 9 30 20
33 23 3 3 21 17 40 30 19 13 48 37 64 52 17 15 33 28 38 28 4 0 8 7 8 16 0 8
5 12 10 9 6 -3 10 -1 10 5 0 11 41 70 68 98 6 7 12 20 12 27 0 26 -21 26 -51
1 -17 -15 -35 -24 -40 -20 -5 3 -9 1 -9 -4 0 -6 -21 -15 -47 -20 -53 -12 -83
-12 -83 -2 0 11 40 44 40 34 0 -5 10 6 21 24 12 17 25 32 31 32 5 0 6 5 3 10
-3 6 0 10 7 10 19 1 158 194 158 220 0 6 4 10 8 10 5 0 16 16 25 35 9 20 23
38 31 41 8 3 12 12 9 20 -3 8 0 14 7 14 6 0 9 4 6 9 -3 5 1 14 9 21 8 7 15 18
15 24 0 7 8 30 19 51 14 29 16 42 7 51 -12 13 -36 8 -36 -8 0 -5 -4 -7 -9 -3
-6 3 -13 -1 -18 -9 -4 -8 -12 -15 -18 -17 -21 -4 -40 -13 -53 -26 -7 -7 -20
-13 -28 -13 -8 0 -14 -4 -14 -10 0 -5 -3 -9 -7 -9 -20 3 -34 -2 -28 -10 3 -6
-11 -13 -31 -17 -20 -4 -45 -14 -56 -23 -10 -9 -21 -15 -24 -13 -3 2 -17 -4
-31 -13 -17 -12 -23 -13 -17 -4 6 11 3 10 -10 -1 -10 -8 -23 -15 -30 -16 -6
-1 -24 -8 -41 -15 -16 -7 -34 -13 -40 -14 -5 0 -16 -4 -22 -8 -7 -5 -23 -10
-35 -13 -28 -6 -38 -9 -60 -17 -59 -22 -61 -17 -18 46 17 25 30 50 30 56 0 6
5 11 10 11 6 0 10 9 10 19 0 11 4 21 9 23 5 2 11 17 14 35 6 37 -14 51 -38 27
-8 -9 -15 -12 -15 -7 0 4 -6 1 -13 -8 -7 -9 -16 -17 -22 -18 -26 -4 -45 -13
-45 -22 0 -5 -6 -9 -14 -9 -7 0 -19 -7 -26 -15 -7 -9 -15 -13 -18 -10 -3 3
-12 -1 -20 -7 -8 -7 -19 -13 -26 -14 -17 -4 -80 -28 -86 -34 -3 -3 -14 -7 -25
-9 -11 -1 -29 -8 -40 -14 -11 -6 -26 -10 -32 -9 -7 2 -13 -2 -13 -8 0 -5 -3
-9 -7 -8 -17 3 -103 -25 -103 -34 0 -5 -4 -7 -9 -4 -5 3 -26 -1 -47 -10 -21
-9 -50 -18 -63 -21 -14 -2 -31 -9 -38 -15 -7 -6 -13 -8 -13 -5 0 4 -20 -2 -45
-13 -25 -11 -49 -20 -53 -20 -21 -1 -72 -23 -72 -31 0 -6 -4 -8 -9 -4 -5 3
-15 0 -23 -7 -15 -14 -33 -21 -60 -22 -10 0 -18 -3 -18 -6 0 -4 -28 -14 -62
-25 -35 -10 -68 -22 -74 -26 -6 -5 -14 -6 -17 -2 -4 3 -7 1 -7 -5 0 -6 -9 -9
-20 -7 -11 2 -20 0 -20 -4 0 -5 -12 -11 -27 -14 -16 -3 -37 -14 -48 -24 -12
-10 -27 -19 -35 -21 -8 -2 -22 -10 -31 -18 -8 -8 -21 -14 -27 -14 -7 0 -12 -4
-12 -10 0 -5 -5 -10 -10 -10 -6 0 -20 -9 -32 -20 -12 -10 -25 -17 -30 -14 -4
3 -8 1 -8 -4 0 -5 -11 -17 -24 -25 -23 -16 -24 -15 -21 6 2 12 7 36 10 52 16
69 3 78 -52 37 -18 -14 -33 -22 -33 -18 0 6 -62 -47 -127 -110 -23 -23 -45
-39 -48 -36 -3 3 -5 0 -5 -6 0 -14 -117 -132 -131 -132 -5 0 -9 -7 -9 -15 0
-8 -3 -14 -7 -14 -17 3 -36 -1 -31 -7 4 -3 -13 -25 -37 -49 -24 -24 -42 -45
-40 -47 2 -2 -14 -23 -35 -47 -22 -24 -40 -46 -40 -48 0 -3 -11 -19 -25 -37
-51 -63 -78 -106 -68 -106 5 0 1 -5 -9 -10 -9 -6 -27 -31 -39 -57 -13 -27 -29
-54 -36 -61 -7 -7 -16 -24 -19 -38 -3 -13 -10 -24 -15 -24 -5 0 -9 -7 -9 -15
0 -8 -4 -15 -8 -15 -5 0 -15 -18 -22 -40 -8 -23 -20 -45 -28 -49 -7 -4 -13
-12 -11 -17 1 -5 -6 -11 -16 -13 -17 -3 -18 -1 -6 13 7 9 9 16 4 16 -5 0 -8
20 -7 45 2 47 -20 83 -32 52 -3 -9 -12 -13 -20 -10 -11 4 -14 28 -13 118 1 62
-1 117 -5 124 -4 6 -17 9 -29 6 -12 -2 -16 -2 -9 1 6 3 10 10 6 15 -3 5 0 9 5
9 6 0 11 7 11 15 0 9 7 18 15 21 8 4 13 10 10 14 -3 5 1 15 9 23 8 8 12 17 9
21 -4 3 -1 6 6 6 7 0 9 5 6 10 -3 6 -2 10 3 10 9 0 39 69 35 82 -2 4 2 8 8 8
6 0 9 7 5 15 -3 8 0 15 6 15 6 0 8 3 5 7 -4 3 -2 12 5 20 6 7 8 16 5 20 -4 3
-3 11 3 18 9 10 37 112 44 160 2 11 4 20 5 20 2 0 4 23 6 50 2 28 6 77 10 110
4 33 9 76 10 95 2 19 4 35 5 35 1 0 3 16 6 35 2 19 7 49 10 65 3 17 6 40 7 53
0 12 5 22 10 22 5 0 7 9 4 20 -3 11 -1 20 4 20 5 0 9 8 9 18 0 10 6 24 13 31
10 11 9 12 -3 6 -10 -6 -8 -1 4 13 18 20 18 22 1 28 -18 7 -59 -32 -70 -67 -4
-11 -11 -19 -16 -19 -5 0 -9 -5 -9 -10 0 -16 -52 -91 -59 -84 -3 3 -6 9 -6 12
-1 19 -42 89 -69 117 -37 38 -119 95 -138 95 -8 0 -19 5 -26 12 -7 7 -12 9
-12 5 0 -4 -9 -3 -21 3 -11 7 -33 14 -47 16 -15 3 -32 10 -39 16 -7 6 -13 8
-13 5 0 -4 -19 1 -42 9 -55 20 -75 25 -118 31 -19 3 -39 9 -45 13 -5 4 -39 8
-75 10 -36 1 -84 3 -108 4 -23 1 -45 0 -48 -3z m-164 -629 c0 8 3 9 8 3 7 -10
12 -12 50 -18 30 -6 112 -47 112 -57 0 -6 9 -10 20 -10 11 0 20 -4 20 -8 0 -5
18 -21 39 -38 22 -16 37 -32 35 -36 -2 -3 2 -12 9 -20 18 -19 54 -71 57 -83 1
-5 6 -20 11 -33 5 -13 9 -27 9 -32 0 -4 6 -20 14 -35 8 -15 13 -36 11 -46 -2
-11 0 -19 4 -19 11 0 22 -281 13 -322 -4 -16 -42 -22 -42 -6 0 4 -11 8 -24 8
-14 0 -28 5 -31 10 -4 6 -11 8 -16 5 -5 -4 -9 -1 -9 5 0 6 -4 8 -10 5 -5 -3
-10 -1 -10 4 0 6 -7 11 -15 11 -8 0 -17 11 -21 25 -3 14 -10 25 -14 25 -4 0
-11 16 -14 35 -4 19 -10 35 -14 35 -4 0 -9 11 -10 24 -1 13 -10 44 -21 69 -11
25 -17 48 -14 51 4 3 -1 14 -10 23 -8 10 -15 20 -15 23 2 15 -20 76 -51 138
-11 24 -21 50 -21 59 0 8 -4 12 -9 9 -7 -5 -22 28 -20 43 0 2 -3 7 -9 10 -5 3
-21 27 -36 54 -15 26 -32 47 -37 47 -5 0 -9 7 -9 15 0 8 7 15 15 15 8 0 15 5
15 10 0 7 6 7 20 0 15 -8 20 -8 20 2z m987 -4339 c-4 -3 3 -12 16 -18 12 -7
35 -19 50 -28 16 -8 28 -17 28 -21 -1 -3 -1 -10 -1 -14 0 -4 25 -20 55 -36 58
-29 62 -35 43 -54 -7 -7 -8 -12 -3 -12 4 0 0 -9 -10 -20 -10 -11 -15 -20 -11
-20 7 0 -3 -14 -36 -50 -9 -10 -14 -21 -10 -24 3 -3 0 -6 -7 -6 -7 0 -9 -4 -6
-10 3 -5 2 -10 -3 -10 -4 0 -28 -29 -51 -65 -45 -67 -50 -71 -56 -38 -2 10 -4
19 -5 21 -2 1 -4 7 -5 12 -1 6 -3 12 -4 15 0 3 -1 8 -2 13 -1 4 -6 16 -11 27
-11 20 -17 105 -8 105 3 0 6 19 6 43 1 23 5 58 8 77 4 19 8 53 10 75 4 45 4
45 13 45 3 0 3 -3 0 -7z m-1570 -519 c-3 -4 2 -18 13 -32 11 -13 17 -28 14
-33 -3 -5 0 -9 6 -9 6 0 14 -8 17 -17 4 -10 13 -23 22 -29 13 -10 12 -13 -6
-23 -27 -14 -53 -5 -53 18 0 10 -3 21 -7 25 -16 15 -30 75 -21 90 5 9 12 16
15 16 4 0 3 -3 0 -6z"/>
</g>
</svg>
